<?xml version="1.0" encoding="UTF-8" standalone="no"?>
<svg width="63px" height="62px" viewBox="0 0 63 62" version="1.1" xmlns="http://www.w3.org/2000/svg" xmlns:xlink="http://www.w3.org/1999/xlink" xmlns:sketch="http://www.bohemiancoding.com/sketch/ns">
    <!-- Generator: Sketch 3.3.2 (12043) - http://www.bohemiancoding.com/sketch -->
    <title>Plussed</title>
    <desc>Created with Sketch.</desc>
    <defs></defs>
    <g id="Page-1" stroke="none" stroke-width="1" fill="none" fill-rule="evenodd" sketch:type="MSPage">
        <g id="Items-Categories" sketch:type="MSArtboardGroup" transform="translate(-469.000000, -518.000000)">
            <g id="Card-1" sketch:type="MSLayerGroup" transform="translate(28.337412, 480.000000)">
                <g id="Plussed" transform="translate(440.000000, 38.000000)" sketch:type="MSShapeGroup">
                    <path d="M13.097561,0 L50.902439,0 C57.5833171,0 63,5.41517073 63,12.0960488 L63,49.9009268 C63,56.5833171 57.5833171,62 50.902439,62 L13.097561,62 C6.41668293,62 1,56.5833171 1,49.9009268 L1,12.0960488 C1,5.41517073 6.41668293,0 13.097561,0" id="Fill-5" fill="#88C057"></path>
                    <path d="M49.3887317,28.7317073 L34.2682927,28.7317073 L34.2682927,13.6097561 L29.7317073,13.6097561 L29.7317073,28.7317073 L14.6097561,28.7317073 L14.6097561,33.2682927 L29.7317073,33.2682927 L29.7317073,48.3902439 L34.2682927,48.3902439 L34.2682927,33.2682927 L49.3887317,33.2682927 L49.3887317,28.7317073" id="Fill-13" fill="#FFFFFF"></path>
                </g>
            </g>
        </g>
    </g>
</svg>