<?xml version="1.0" encoding="UTF-8" standalone="no"?>
<svg width="63px" height="63px" viewBox="0 0 63 63" version="1.1" xmlns="http://www.w3.org/2000/svg" xmlns:xlink="http://www.w3.org/1999/xlink" xmlns:sketch="http://www.bohemiancoding.com/sketch/ns">
    <!-- Generator: Sketch 3.3.2 (12043) - http://www.bohemiancoding.com/sketch -->
    <title>BASKET</title>
    <desc>Created with Sketch.</desc>
    <defs></defs>
    <g id="Page-1" stroke="none" stroke-width="1" fill="none" fill-rule="evenodd" sketch:type="MSPage">
        <g id="Categories" sketch:type="MSArtboardGroup" transform="translate(-1122.000000, -132.000000)" fill="#FFFFFF">
            <g id="Header" sketch:type="MSLayerGroup" transform="translate(58.236355, 112.590286)">
                <path d="M1124.29057,27.0585516 C1123.21903,26.1131814 1117.39539,21.6037464 1116.30637,20.6409053 C1115.21929,19.6819467 1113.51491,19.4121182 1112.31912,19.4121182 L1077.48796,19.4121182 C1076.29023,19.4121182 1074.58585,19.6819467 1073.50071,20.6409053 C1072.41169,21.6037464 1066.58417,26.1131814 1065.51456,27.0585516 C1064.44301,28.0000393 1063.55394,29.4248888 1063.83736,31.4631612 C1064.12271,33.4936688 1070.84319,79.446035 1070.84319,79.446035 C1071.22561,80.6029972 1072.51069,81.5483674 1073.7123,81.5483674 L1116.09866,81.5483674 C1117.29056,81.5483674 1118.58535,80.6029972 1118.96001,79.446035 C1118.96001,79.446035 1125.68048,33.4936688 1125.96972,31.4631612 C1126.2512,29.4248888 1125.36212,28.0000393 1124.29057,27.0585516 L1124.29057,27.0585516 Z M1110.27114,43.1667273 C1110.27114,43.1667273 1110.10226,44.4343386 1109.88096,46.1037808 C1109.87514,46.1620171 1109.87125,46.216371 1109.85961,46.2746074 C1109.83825,46.472611 1109.81302,46.6686734 1109.78196,46.866677 C1109.11806,51.1256957 1106.74396,54.7984685 1103.40702,57.1356875 C1100.98633,58.8303655 1098.05898,59.8242659 1094.90063,59.8242659 C1091.74616,59.8242659 1088.81687,58.8303655 1086.39424,57.1356875 C1083.05729,54.7984685 1080.68513,51.1256957 1080.02124,46.866677 C1079.99212,46.6686734 1079.963,46.472611 1079.94165,46.2746074 C1079.93583,46.216371 1079.92806,46.1620171 1079.9203,46.1037808 C1079.70288,44.4343386 1079.53205,43.1667273 1079.53205,43.1667273 C1079.52429,43.0987849 1079.52429,43.0250188 1079.52429,42.9512528 C1079.52429,42.8813691 1079.52429,42.8134267 1079.53205,42.7396607 C1079.57864,42.2038862 1079.79994,41.716642 1080.13577,41.3419882 C1080.53954,40.891627 1081.10638,40.5965628 1081.74698,40.5635622 L1081.86539,40.5635622 L1081.98575,40.5635622 L1082.45358,40.5635622 L1082.57199,40.5635622 L1082.69235,40.5635622 C1083.43583,40.6004452 1084.08614,40.9945112 1084.48797,41.578816 C1084.73644,41.935999 1084.82962,42.3087116 1084.91309,42.83478 C1084.91309,42.8503097 1085.11498,44.1140386 1085.35569,45.5815948 C1085.3984,45.8727765 1085.44693,46.1717232 1085.4974,46.472611 L1085.4974,46.4939643 C1085.92252,48.5031186 1086.94748,50.285151 1088.37427,51.6362344 C1090.08836,53.2571463 1092.38288,54.2510468 1094.90063,54.2510468 C1097.42032,54.2510468 1099.71677,53.2571463 1101.42892,51.6362344 C1102.85766,50.285151 1103.87873,48.5031186 1104.30386,46.4939643 C1104.30386,46.4861995 1104.30774,46.4803758 1104.30774,46.472611 C1104.35821,46.1717232 1104.4048,45.8727765 1104.45139,45.5815948 C1104.68628,44.1140386 1104.88622,42.8503097 1104.89399,42.83478 C1104.97552,42.3087116 1105.0687,41.935999 1105.31523,41.578816 C1105.71512,40.9945112 1106.36542,40.6004452 1107.11279,40.5635622 L1107.23121,40.5635622 L1107.35156,40.5635622 L1107.81939,40.5635622 L1107.93781,40.5635622 L1108.0601,40.5635622 C1108.69876,40.5965628 1109.26754,40.891627 1109.67131,41.3419882 C1110.00326,41.716642 1110.22455,42.2038862 1110.27114,42.7396607 C1110.27891,42.8134267 1110.28085,42.8813691 1110.28085,42.9512528 C1110.28085,43.0250188 1110.27891,43.0987849 1110.27114,43.1667273 L1110.27114,43.1667273 Z M1116.91009,29.5937742 C1116.89456,29.5976566 1116.88485,29.5976566 1116.86932,29.5976566 C1116.85573,29.5976566 1116.84409,29.5976566 1116.8305,29.5937742 L1072.98241,29.5937742 C1072.9727,29.5976566 1072.95717,29.5976566 1072.94358,29.5976566 C1072.92999,29.5976566 1072.91835,29.5976566 1072.90282,29.5937742 C1072.2758,29.5743621 1071.77497,29.0463525 1071.77497,28.4018702 C1071.77497,28.0310987 1071.93609,27.7010927 1072.19621,27.4817358 C1072.22533,27.4526176 1072.25639,27.4312642 1072.29327,27.4099109 L1076.35235,24.2981484 C1076.35235,24.2981484 1076.35429,24.2962072 1076.35817,24.2942659 C1076.44553,24.2204999 1076.53288,24.1525575 1076.62606,24.0884975 L1076.62994,24.0884975 C1077.14436,23.7332557 1077.75196,23.5119576 1078.41392,23.4808982 C1078.47021,23.478957 1078.53039,23.4750746 1078.59057,23.4750746 C1078.65268,23.4750746 1078.71286,23.478957 1078.7711,23.4808982 L1111.12528,23.4808982 C1111.15439,23.478957 1111.18545,23.478957 1111.21457,23.478957 C1111.24563,23.478957 1111.27475,23.478957 1111.30775,23.4808982 C1112.00076,23.4964279 1112.6433,23.7196672 1113.17908,24.0904387 C1113.18296,24.0943211 1113.18684,24.0962623 1113.19073,24.0962623 C1113.27614,24.1583811 1113.35767,24.2204999 1113.43532,24.2865011 C1113.4392,24.2903835 1113.44697,24.2942659 1113.45085,24.2981484 L1117.45945,27.3691455 C1117.53128,27.4137933 1117.59922,27.4603824 1117.6594,27.5263836 C1117.89428,27.7379757 1118.03793,28.052452 1118.03793,28.4018702 C1118.03793,29.0463525 1117.5371,29.5743621 1116.91009,29.5937742 L1116.91009,29.5937742 Z" id="BASKET" sketch:type="MSShapeGroup"></path>
            </g>
        </g>
    </g>
</svg>