<?xml version="1.0" encoding="UTF-8" standalone="no"?>
<svg width="77px" height="75px" viewBox="0 0 77 75" version="1.1" xmlns="http://www.w3.org/2000/svg" xmlns:xlink="http://www.w3.org/1999/xlink" xmlns:sketch="http://www.bohemiancoding.com/sketch/ns">
    <!-- Generator: Sketch 3.3.2 (12043) - http://www.bohemiancoding.com/sketch -->
    <title>basket_with_item</title>
    <desc>Created with Sketch.</desc>
    <defs></defs>
    <g id="Page-1" stroke="none" stroke-width="1" fill="none" fill-rule="evenodd" sketch:type="MSPage">
        <g id="Items-Categories" sketch:type="MSArtboardGroup" transform="translate(-1123.000000, -126.000000)">
            <g id="basket_with_item" sketch:type="MSLayerGroup" transform="translate(1123.000000, 126.000000)">
                <path d="M61.1100808,19.7829495 C60.0388558,18.8355617 54.2169808,14.3165023 53.1282902,13.3516063 C52.0415402,12.390601 50.3376715,12.1201967 49.1422465,12.1201967 L14.3216121,12.1201967 C13.1242465,12.1201967 11.4203777,12.390601 10.3355683,13.3516063 C9.24687771,14.3165023 3.42112146,18.8355617 2.35183708,19.7829495 C1.28061208,20.7264467 0.391805833,22.1543371 0.675137083,24.1969598 C0.960408958,26.231801 7.67885271,72.2822417 7.67885271,72.2822417 C8.06115583,73.4416733 9.34584958,74.3890611 10.5470965,74.3890611 L52.9206433,74.3890611 C54.1121871,74.3890611 55.406584,73.4416733 55.7811246,72.2822417 C55.7811246,72.2822417 62.4995683,26.231801 62.7887215,24.1969598 C63.0701121,22.1543371 62.1813058,20.7264467 61.1100808,19.7829495 L61.1100808,19.7829495 Z M47.0948871,35.9255044 C47.0948871,35.9255044 46.9260527,37.1958211 46.7048215,38.8688263 C46.6989996,38.9271869 46.6951183,38.9816569 46.6834746,39.0400175 C46.6621277,39.2384437 46.6368996,39.4349246 46.6058496,39.6333508 C45.9421558,43.9014594 43.5687715,47.5820708 40.2328371,49.9242781 C37.8128777,51.6225729 34.8864152,52.6185946 31.7290183,52.6185946 C28.5755027,52.6185946 25.6470996,51.6225729 23.2251996,49.9242781 C19.8892652,47.5820708 17.5178215,43.9014594 16.8541277,39.6333508 C16.8250183,39.4349246 16.795909,39.2384437 16.7745621,39.0400175 C16.7687402,38.9816569 16.7609777,38.9271869 16.7532152,38.8688263 C16.5358652,37.1958211 16.3650902,35.9255044 16.3650902,35.9255044 C16.3573277,35.8574169 16.3573277,35.7834934 16.3573277,35.70957 C16.3573277,35.6395372 16.3573277,35.5714498 16.3650902,35.4975263 C16.4116652,34.9606083 16.6328965,34.4723243 16.9686246,34.0968708 C17.3722746,33.6455484 17.9389371,33.3498545 18.5793433,33.3167835 L18.6977215,33.3167835 L18.8180402,33.3167835 L19.2857308,33.3167835 L19.404109,33.3167835 L19.5244277,33.3167835 C20.2676871,33.3537452 20.9177965,33.7486522 21.3195058,34.3342041 C21.5679058,34.6921494 21.6610558,35.0656575 21.7445027,35.5928487 C21.7445027,35.6084115 21.9463277,36.8748375 22.1869652,38.3455258 C22.229659,38.6373291 22.2781746,38.9369137 22.3286308,39.2384437 L22.3286308,39.2598426 C22.7536277,41.2732849 23.7782777,43.0591207 25.2046371,44.4130877 C26.918209,46.037459 29.2120277,47.0334807 31.7290183,47.0334807 C34.2479496,47.0334807 36.543709,46.037459 38.2553402,44.4130877 C39.6836402,43.0591207 40.704409,41.2732849 41.1294058,39.2598426 C41.1294058,39.2520612 41.1332871,39.2462251 41.1332871,39.2384437 C41.1837433,38.9369137 41.2303183,38.6373291 41.2768933,38.3455258 C41.511709,36.8748375 41.7115933,35.6084115 41.7193558,35.5928487 C41.8008621,35.0656575 41.8940121,34.6921494 42.1404715,34.3342041 C42.5402402,33.7486522 43.1903496,33.3537452 43.9374902,33.3167835 L44.0558683,33.3167835 L44.1761871,33.3167835 L44.6438777,33.3167835 L44.7622558,33.3167835 L44.8845152,33.3167835 C45.5229808,33.3498545 46.091584,33.6455484 46.495234,34.0968708 C46.8270808,34.4723243 47.0483121,34.9606083 47.0948871,35.4975263 C47.1026496,35.5714498 47.1045902,35.6395372 47.1045902,35.70957 C47.1045902,35.7834934 47.1026496,35.8574169 47.0948871,35.9255044 L47.0948871,35.9255044 Z M53.7318246,22.323583 C53.7162996,22.3274737 53.7065965,22.3274737 53.6910715,22.3274737 C53.6774871,22.3274737 53.6658433,22.3274737 53.652259,22.323583 L9.81742146,22.323583 C9.80771833,22.3274737 9.79219333,22.3274737 9.77860896,22.3274737 C9.76502458,22.3274737 9.75338083,22.3274737 9.73785583,22.323583 C9.11103396,22.3041295 8.61035271,21.7749929 8.61035271,21.1291351 C8.61035271,20.7575723 8.77142458,20.426862 9.03146833,20.2070369 C9.06057771,20.1778566 9.09162771,20.1564577 9.12849958,20.1350588 L13.1863465,17.0166549 C13.1863465,17.0166549 13.1882871,17.0147095 13.1921683,17.0127642 C13.2794965,16.9388407 13.3668246,16.8707533 13.4599746,16.8065566 L13.4638558,16.8065566 C13.9781215,16.4505566 14.5855371,16.2287862 15.2472902,16.1976605 C15.3035683,16.1957151 15.3637277,16.1918244 15.4238871,16.1918244 C15.4859871,16.1918244 15.5461465,16.1957151 15.6043652,16.1976605 L47.9487621,16.1976605 C47.9778715,16.1957151 48.0089215,16.1957151 48.0380308,16.1957151 C48.0690808,16.1957151 48.0981902,16.1957151 48.1311808,16.1976605 C48.823984,16.2132233 49.4663308,16.4369391 50.0019433,16.8085019 C50.0058246,16.8123926 50.0097058,16.814338 50.0135871,16.814338 C50.0989746,16.8765893 50.1804808,16.9388407 50.2581058,17.0049828 C50.2619871,17.0088735 50.2697496,17.0127642 50.2736308,17.0166549 L54.2810215,20.0942063 C54.3528246,20.1389495 54.4207465,20.185638 54.4809058,20.2517801 C54.7157215,20.4638237 54.8593277,20.7789712 54.8593277,21.1291351 C54.8593277,21.7749929 54.3586465,22.3041295 53.7318246,22.323583 L53.7318246,22.323583 Z" id="BASKET" fill="#FFFFFF" sketch:type="MSShapeGroup"></path>
                <ellipse id="notification" fill="#EEAF4B" sketch:type="MSShapeGroup" cx="60.78125" cy="16.0109064" rx="15.525" ry="15.5628391"></ellipse>
            </g>
        </g>
    </g>
</svg>